<svg width="32" height="32" viewBox="0 0 32 32" fill="none" xmlns="http://www.w3.org/2000/svg">
<g clip-path="url(#clip0_1397_569)">
<path d="M32 16C32 7.16344 24.8366 0 16 0C7.16344 0 0 7.16344 0 16C0 24.8366 7.16344 32 16 32C24.8366 32 32 24.8366 32 16Z" fill="#9CA3AF"/>
<path d="M16 19.2004C19.536 19.2004 22.4 16.3364 22.4 12.8004C22.4 9.26439 19.536 6.40039 16 6.40039C12.464 6.40039 9.59995 9.26439 9.59995 12.8004C9.59995 16.3364 12.464 19.2004 16 19.2004ZM16 22.4004C11.728 22.4004 3.19995 24.5444 3.19995 28.8004V30.4004C3.19995 31.284 3.9163 32.0004 4.79995 32.0004H27.2C28.0836 32.0004 28.8 31.284 28.8 30.4004V28.8004C28.8 24.5444 20.272 22.4004 16 22.4004Z" fill="#FFFEFB"/>
</g>
<defs>
<clipPath id="clip0_1397_569">
<rect width="32" height="32" fill="white"/>
</clipPath>
</defs>
</svg>
