<svg width="37" height="30" viewBox="0 0 37 30" fill="none" xmlns="http://www.w3.org/2000/svg">
<path d="M19.631 6.53777C21.3969 5.70606 25.2945 3.3342 26.7569 0.500365" stroke="#8DADB9" stroke-linecap="round"/>
<path d="M17.3622 6.53777C15.5962 5.70606 11.6987 3.3342 10.2363 0.500365" stroke="#8DADB9" stroke-linecap="round"/>
<path d="M8.47029 6.73943C0.934028 10.3619 -0.283954 18.6268 0.049088 22.3065C0.049088 27.654 6.18652 29.5103 21.1734 29.5103C33.1629 29.5103 36.1603 24.7078 36.1603 22.3065C36.1603 12.7999 30.5462 7.96737 27.7391 6.73943C24.4563 5.23005 16.0066 3.11693 8.47029 6.73943Z" fill="#B6D8E4"/>
<ellipse cx="3.54905" cy="2.59764" rx="3.54905" ry="2.59764" transform="matrix(-0.999769 -0.0214785 -0.0214785 0.999769 31.208 15.9043)" fill="url(#paint0_radial_404_376)"/>
<ellipse cx="3.44933" cy="2.52466" rx="3.44933" ry="2.52466" transform="matrix(-0.999769 -0.0214785 -0.0214785 0.999769 13.0059 15.9746)" fill="url(#paint1_radial_404_376)"/>
<path d="M15.8011 16.6318C15.8376 18.3274 14.8529 16.7625 12.5323 16.8124C10.2118 16.8622 7.43417 18.508 7.39775 16.8124C7.36132 15.1167 9.21295 13.7018 11.5335 13.6519C13.854 13.6021 15.7647 14.9362 15.8011 16.6318Z" fill="white"/>
<path d="M15.3199 17.0234C15.185 17.5753 14.3019 16.5136 13.0645 16.2111C11.827 15.9086 10.7038 16.4798 10.8387 15.9279C10.9736 15.3761 12.0862 15.1739 13.3236 15.4765C14.561 15.779 15.4548 16.4716 15.3199 17.0234Z" fill="#565857"/>
<path d="M21.349 16.6328C21.3126 18.3284 22.2973 16.7635 24.6178 16.8133C26.9383 16.8632 29.716 18.5089 29.7524 16.8133C29.7888 15.1177 27.9372 13.7028 25.6167 13.6529C23.2961 13.603 21.3854 14.9372 21.349 16.6328Z" fill="white"/>
<path d="M21.8353 17.0453C21.9558 17.5384 22.8015 16.576 23.9722 16.2898C25.1429 16.0036 26.1952 16.502 26.0747 16.0089C25.9542 15.5159 24.9074 15.3482 23.7368 15.6344C22.5661 15.9206 21.7148 16.5523 21.8353 17.0453Z" fill="#565857"/>
<path d="M19 18.501L20.7321 21.501H17.2679L19 18.501Z" fill="#E99227"/>
<defs>
<radialGradient id="paint0_radial_404_376" cx="0" cy="0" r="1" gradientUnits="userSpaceOnUse" gradientTransform="translate(3.54905 2.59764) rotate(-90) scale(2.59764 3.54905)">
<stop offset="0.447115" stop-color="#F3B4B4"/>
<stop offset="1" stop-color="#B6D8E4"/>
</radialGradient>
<radialGradient id="paint1_radial_404_376" cx="0" cy="0" r="1" gradientUnits="userSpaceOnUse" gradientTransform="translate(3.44933 2.52466) rotate(-90) scale(2.52466 3.44933)">
<stop offset="0.447115" stop-color="#F3B4B4"/>
<stop offset="1" stop-color="#B6D8E4"/>
</radialGradient>
</defs>
</svg>
